<svg viewBox="0 0 96 96" xmlns="http://www.w3.org/2000/svg" xmlns:xlink="http://www.w3.org/1999/xlink" id="Icons_ShieldTick_M" overflow="hidden"><g id="Icons"><path d="M35.931 44.728 34.517 46.142 44.782 56.408 62.483 38.707 61.069 37.293 44.782 53.58 35.931 44.728Z"/><path d="M78.532 21.9C67.9146 21.0417 58.0203 16.1801 50.853 8.3 49.5003 6.73096 47.1318 6.55556 45.5628 7.90823 45.4227 8.02898 45.2917 8.15993 45.171 8.3 38.0045 16.1797 28.1083 21.0373 17.491 21.887 15.5158 22.0776 14.0136 23.7457 14.03 25.73L14.03 35.413C14.03 56.476 27.385 75.742 45.921 87.663 47.1933 88.4857 48.8297 88.4857 50.102 87.663 68.639 75.742 81.993 56.486 81.993 35.423L81.993 25.742C82.0123 23.7568 80.5084 22.0874 78.532 21.9ZM79.993 35.426C79.993 54.611 68.415 73.511 49.021 85.983 48.4076 86.3824 47.6164 86.3824 47.003 85.983 27.609 73.51 16.03 54.606 16.03 35.415L16.03 25.732C16.0122 24.7891 16.7149 23.9876 17.652 23.882 28.7779 23.0011 39.1492 17.9106 46.652 9.648 46.9916 9.24946 47.4846 9.0139 48.008 9 48.5343 9.01385 49.0303 9.24915 49.374 9.648 56.8784 17.9099 67.2481 23.0032 78.374 23.892 79.3115 23.9972 80.0148 24.7988 79.997 25.742Z"/><path d="M22.03 29.4 22.03 35.418C22.03 51.823 31.693 68.118 48.012 79.445 64.33 68.112 73.993 51.823 73.993 35.425L73.993 29.4C64.2764 27.8542 55.2355 23.4649 48.011 16.786 40.7884 23.4671 31.7471 27.8567 22.03 29.4ZM71.993 35.428C71.993 50.658 63.055 66.107 48.012 76.993 32.969 66.1 24.03 50.652 24.03 35.415L24.03 31.075C32.9011 29.3693 41.1696 25.3664 48.01 19.466 54.8519 25.367 63.121 29.3718 71.993 31.081Z"/></g></svg>